inDegrees=yes
name=ik_lifting_orientations
DataType=double
version=3
OpenSimVersion=4.5-2024-01-10-34fd6af
endheader
time	pelvis_tilt	pelvis_list	pelvis_rotation	pelvis_tx	pelvis_ty	pelvis_tz	hip_flexion_r	hip_adduction_r	hip_rotation_r	knee_angle_r	knee_angle_r_beta	ankle_angle_r	subtalar_angle_r	mtp_angle_r	hip_flexion_l	hip_adduction_l	hip_rotation_l	knee_angle_l	knee_angle_l_beta	ankle_angle_l	subtalar_angle_l	mtp_angle_l	lumbar_extension	lumbar_bending	lumbar_rotation	arm_flex_r	arm_add_r	arm_rot_r	elbow_flex_r	pro_sup_r	wrist_flex_r	wrist_dev_r	arm_flex_l	arm_add_l	arm_rot_l	elbow_flex_l	pro_sup_l	wrist_flex_l	wrist_dev_l
2.26	-0.00139033648294647	-0.001148687944136658	89.99425177723228	0	0.9400000003403366	0	44.88631568796919	-10.00049345756232	0	59.52633761659386	1.038930583063317	-5.000035493917744	0	0	44.88631568796919	-10.00049345756232	0	59.52633761659386	1.038930583063317	-5.000035493917744	0	0	-0.01050674069554891	-0.01241337658733791	0.009646129577713247	-1.872163165425487	-23.26865303578395	-11.6561582859311	106.9143930771228	-1.398829835992507	0	0	0	-13.52428800633277	0	75.00925229743005	1.398619566362322	0	0
2.27	0.002008064118207499	0.01296971439555201	90.00528560722127	0	0.9400000003403366	0	44.88632784412258	-10.00049327378187	0	59.52637748835715	1.038931278956865	-5.000035476612363	0	0	44.88632784412258	-10.00049327378187	0	59.52637748835715	1.038931278956865	-5.000035476612363	0	0	-0.01511430731473119	-0.001597467356686046	-0.01113436583435094	-1.962359286442	-23.24812598853528	-11.6863328693518	106.8640789774917	-1.398725653428175	0	0	0	-13.52436895233727	0	75.00925132690165	1.398515383797554	0	0
2.28	0.001904554034324502	0.01466179964102683	90.00685466849343	0	0.9400000003403366	0	44.8859402963347	-10.00049859726336	0	59.52510076169492	1.038908995872961	-5.000035959621682	0	0	44.8859402963347	-10.00049859726336	0	59.52510076169492	1.038908995872961	-5.000035959621682	0	0	-0.01194447227227611	0.004501262795510888	-0.01776894661872486	-2.069878479663676	-23.24289512360502	-11.75075334256746	106.9804616924321	-1.402086167373129	0	0	0	-13.52174058527285	0	75.00928226813031	1.40187589775664	0	0
2.29	0.0005719011451501585	-0.002315850442270682	89.99971805893196	0	0.9400000003403366	0	44.88557698877544	-10.00050358120107	0	59.52390332313639	1.038888096627524	-5.000036411600883	0	0	44.88557698877544	-10.00050358120107	0	59.52390332313639	1.038888096627524	-5.000036411600883	0	0	-0.0001674110778139607	0.001130932027945996	-3.21486321106446e-05	-2.164547426835512	-23.2394313318049	-11.84662777980593	107.0947197784005	-1.405237250152346	0	0	0	-13.51927559571795	0	75.00931127405595	1.40502698054912	0	0
2.3	-0.0003625713567103809	0.003944752012423556	90.00255718576439	0	0.9400000003403366	0	44.88528972742908	-10.00050793012071	0	59.52296635692189	1.038871743482101	-5.000036820429502	0	0	44.88528972742908	-10.00050793012071	0	59.52296635692189	1.038871743482101	-5.000036820429502	0	0	-0.008403516897785519	0.004575404325427242	-0.009286155268310697	-2.240128366411992	-23.20762313955495	-11.8936561800203	107.2564049812428	-1.407694461068009	0	0	0	-13.51737005093201	0	75.00933420855554	1.407484191475141	0	0
2.31	0.004418179634109832	0.001060833333854794	90.00543185395709	0	0.9400000003403366	0	44.88481717231132	-10.00051485472845	0	59.52141933668171	1.038844742885315	-5.000037464142016	0	0	44.88481717231132	-10.00051485472845	0	59.52141933668171	1.038844742885315	-5.000037464142016	0	0	-0.006951892455798567	0.007499898856871921	-0.01009154184504889	-2.327884412872957	-23.16116172594542	-11.98492927327054	107.4524329189266	-1.411756229774666	0	0	0	-13.51421044470693	0	75.00937193662861	1.411545960198879	0	0
2.32	0.003864783486225827	-0.002933067095222001	90.00611711514706	0	0.9400000003403366	0	44.88442551069906	-10.00052063017559	0	59.52013706341693	1.038822362994934	-5.00003800240464	0	0	44.88442551069906	-10.00052063017559	0	59.52013706341693	1.038822362994934	-5.00003800240464	0	0	-0.00476243031553457	0.01089085726450361	-0.01552836127697919	-2.36580405959033	-23.13362863925723	-12.07856121589523	107.6124088249271	-1.415120493744532	0	0	0	-13.51159430065375	0	75.00940320628744	1.414910224182905	0	0
2.33	-0.002463619234968426	0.004097942853061601	89.99818597565502	0	0.9400000003403366	0	44.8840286439797	-10.00052683264208	0	59.51884513135564	1.038799814526753	-5.000038592446942	0	0	44.8840286439797	-10.00052683264208	0	59.51884513135564	1.038799814526753	-5.000038592446942	0	0	-0.002991002388223974	0.01717144360264666	-0.01935201865470695	-2.399724368287212	-23.11651303783527	-12.13714850025496	107.7960142195489	-1.418501313823231	0	-1.077613842297402e-35	0	-13.50897883676137	0	75.00943489150427	1.418291044275824	0	-1.077613842297402e-35
2.34	0.0001834998596365935	0.007581162189182505	90.01064999592998	0	0.9400000003403366	0	44.88406288626108	-10.00052628916348	0	59.51895668116371	1.038801761438184	-5.000038540317004	0	0	44.88406288626108	-10.00052628916348	0	59.51895668116371	1.038801761438184	-5.000038540317004	0	0	-0.0199703117038668	-0.0003891525812134349	-0.01374027514931397	-2.495327327796589	-23.04089415832502	-12.33689478251447	108.0212342990637	-1.418209872022079	0	0	0	-13.50920426142295	0	75.00943215765427	1.417999602473454	0	0
2.35	-0.00200434713020878	0.004165081249044497	90.00427443889261	0	0.9400000003403366	0	44.88402990971515	-10.00052683917209	0	59.51885050260904	1.03879990827281	-5.000038592638548	0	0	44.88402990971515	-10.00052683917209	0	59.51885050260904	1.03879990827281	-5.000038592638548	0	0	-0.003667244051910993	0.004056303987430967	-0.009320391004196949	-2.45579259128476	-23.03099353707274	-12.3560757113545	108.0754099602597	-1.418486005830879	0	5.349937038254833e-50	0	-13.50899315639886	0	75.00943479044739	1.418275736283418	0	5.349937038254833e-50
2.36	-0.003896861068472485	0.002828987321145278	89.99397715770993	0	0.9400000003403366	0	44.88393539507478	-10.00052805435699	0	59.51853748603854	1.038794445103041	-5.000038699401134	0	0	44.88393539507478	-10.00052805435699	0	59.51853748603854	1.038794445103041	-5.000038699401134	0	0	-0.001853441940859767	0.008521682848977528	-0.01844946192470668	-2.460632693692124	-23.01703422130433	-12.39493607937378	108.113168532322	-1.419311663240357	0	0	0	-13.50834451684996	0	75.00944233635488	1.419101393696367	0	0
2.37	0.00239290757096773	-0.001238442616331284	89.99513186449278	0	0.9400000003403366	0	44.88411980154841	-10.0005250256133	0	59.51913539475256	1.038804880578727	-5.000038405147391	0	0	44.88411980154841	-10.0005250256133	0	59.51913539475256	1.038804880578727	-5.000038405147391	0	0	-0.001239023321985837	0.003716378175359816	-0.02457555136498553	-2.420853544581139	-23.00522526650955	-12.42803608569961	108.0513038495324	-1.417750072515274	0	0	0	-13.50954832826825	0	75.00942761363331	1.417539802964711	0	0
2.38	0.006143399822822661	-0.0008043017456300613	89.99960177730838	0	0.9400000003403366	0	44.88431031591129	-10.00052188967904	0	59.51975292222076	1.038815658466269	-5.000038100522655	0	0	44.88431031591129	-10.00052188967904	0	59.51975292222076	1.038815658466269	-5.000038100522655	0	0	-0.0003537105038462065	-0.004367635045666331	-0.02364343692467514	-2.380686582119384	-23.01375850267382	-12.44918207034309	107.9865903799308	-1.416137695942474	0	0	0	-13.51079081135041	0	75.00941240326792	1.415927426385122	0	0
2.39	0.001526883851960474	-0.002744432238812473	89.99492672967575	0	0.9400000003403366	0	44.88427291519348	-10.00052214081486	0	59.51962428685976	1.038813413355685	-5.000038113467593	0	0	44.88427291519348	-10.00052214081486	0	59.51962428685976	1.038813413355685	-5.000038113467593	0	0	-0.002851827046108532	-0.003407458226569017	-0.0284825769408084	-2.390914086015803	-23.01518151738992	-12.47974864916682	107.9911636711878	-1.416482940568651	0	0	0	-13.51051082557248	0	75.00941538929149	1.416272671012754	0	0
2.4	-0.002979566330601986	-0.001612602785037884	90.00291912266961	0	0.9400000003403366	0	44.8843793194819	-10.00052032458354	0	59.51996789879922	1.038819410515377	-5.000037934872085	0	0	44.8843793194819	-10.00052032458354	0	59.51996789879922	1.038819410515377	-5.000037934872085	0	0	-0.001384250508101439	0.0004493869490080147	-0.02814543418520235	-2.363761753191111	-23.00340527877807	-12.53574388164871	107.9506165711036	-1.41558724933789	0	0	0	-13.51119871221438	0	75.00940689414294	1.415376979778226	0	0
2.41	-0.001324653742106775	-0.0002819682802770779	90.00971664808216	0	0.9400000003403366	0	44.88453030631707	-10.00051781780634	0	59.52045684631271	1.038827944259357	-5.000037690804501	0	0	44.88453030631707	-10.00051781780634	0	59.52045684631271	1.038827944259357	-5.000037690804501	0	0	-0.001334764587759382	0.0006699196417453272	-0.01575201273719345	-2.347437816326682	-22.99251859111879	-12.51692790778303	107.9020907202331	-1.414311249230163	0	0	0	-13.51218107808718	0	75.00939483959355	1.414100979665128	0	0
2.42	0.002728693810013527	0.0003819863894405252	90.00902279882956	0	0.9400000003403366	0	44.88455462772896	-10.00051715270001	0	59.5205302349211	1.038829225132207	-5.000037618052512	0	0	44.88455462772896	-10.00051715270001	0	59.5205302349211	1.038829225132207	-5.000037618052512	0	0	-0.00087420501060738	-0.00254379467374034	-0.01067974272438798	-2.34730642984793	-22.99784655691202	-12.51253222298627	107.8917662287094	-1.414126475185623	0	0	0	-13.51231321426398	0	75.00939289781762	1.413916205619813	0	0
